<svg width="200" height="24" viewBox="0 0 200 24" fill="none" xmlns="http://www.w3.org/2000/svg">
<path fill-rule="evenodd" clip-rule="evenodd" d="M72.2574 22.5753C72.2725 22.7391 72.2524 22.9043 72.1985 23.059C72.1446 23.2138 72.0583 23.3544 71.9456 23.4707C71.833 23.587 71.6969 23.6762 71.547 23.7319C71.3972 23.7876 71.2372 23.8083 71.0787 23.7928H68.8263C68.6663 23.8106 68.5044 23.7916 68.3523 23.7371C68.2003 23.6825 68.0618 23.5939 67.9469 23.4774C67.832 23.361 67.7436 23.2197 67.6879 23.0637C67.6322 22.9077 67.6107 22.7409 67.625 22.5753V1.28975C67.625 0.653897 67.8653 0.351479 68.7212 0.351479H70.9736C71.807 0.351479 72.0472 0.630634 72.0472 1.26649V1.95662H72.1824C72.2875 1.67747 73.0908 0.0800781 75.8763 0.0800781C79.6303 0.0800781 82.0629 3.34464 82.0629 10.1607C82.0629 16.9767 79.7204 20.0319 75.5234 20.0319C73.271 20.0319 72.5202 18.7912 72.4151 18.4811H72.2574V22.5753ZM74.7726 15.7205C76.5145 15.7205 77.4755 14.1697 77.4755 10.1607C77.4755 6.1517 76.5145 4.3527 74.7726 4.3527C72.6854 4.3527 71.852 6.22924 71.852 10.1607C71.852 14.0921 72.7079 15.7205 74.7726 15.7205ZM83.4591 10.5019C83.4591 17.5661 85.8091 20.5825 91.0647 20.5825C96.3203 20.5825 98.6703 17.5661 98.6703 10.4632C98.6703 3.36023 96.2753 0.126684 91.0647 0.126684C85.8541 0.126684 83.4591 3.43777 83.4591 10.5019ZM93.9553 10.4632C93.9553 14.5807 93.0693 16.2944 91.0647 16.2944C89.0676 16.2944 88.1741 14.697 88.1741 10.4632C88.1741 6.22932 89.0225 4.40706 91.0647 4.40706C93.1069 4.40706 93.9553 6.34564 93.9553 10.4632ZM142.885 13.5575C142.374 13.4722 142.029 13.5575 142.029 14.1391C141.999 15.1627 141.301 16.2948 139.431 16.3103C137.239 16.3103 136.571 14.5423 136.488 11.1692H145.393C145.986 11.1692 146.143 10.9754 146.143 10.5023V9.8665C145.926 3.59326 144.709 0.13484 139.288 0.13484C133.868 0.13484 131.78 3.64754 131.78 10.3628C131.78 17.2486 133.89 20.5907 139.326 20.5907C143.523 20.5907 145.693 18.0628 146.016 15.1627C146.121 14.2787 145.775 13.9453 145.025 13.8367L142.885 13.5575ZM136.563 8.02873C136.803 5.37675 137.502 3.96547 139.266 3.96547C141.143 3.96547 141.894 5.60163 141.999 8.02873H136.563ZM131.637 19.7106C131.622 19.5933 131.573 19.4835 131.495 19.396L125.234 10.4398L131.871 1.31295C132.164 0.925238 132.081 0.343665 131.413 0.343665H128.252C127.888 0.333012 127.527 0.41859 127.204 0.592289C126.88 0.765987 126.606 1.02205 126.405 1.33622L121.375 8.60976V1.56109C121.393 1.39672 121.374 1.23029 121.321 1.07416C121.269 0.918032 121.182 0.776219 121.069 0.659255C120.956 0.542292 120.818 0.453183 120.667 0.398547C120.516 0.343911 120.355 0.325152 120.196 0.343665H117.891C117.731 0.318741 117.567 0.333038 117.413 0.385405C117.259 0.437772 117.119 0.526748 117.004 0.645173C116.889 0.763598 116.803 0.908166 116.753 1.06725C116.702 1.22633 116.688 1.39548 116.712 1.56109V19.1789C116.693 19.3436 116.71 19.5106 116.762 19.6675C116.815 19.8243 116.901 19.9668 117.014 20.0841C117.128 20.2014 117.266 20.2905 117.418 20.3446C117.57 20.3986 117.731 20.4163 117.891 20.3963H120.196C120.355 20.4163 120.517 20.3986 120.669 20.3446C120.821 20.2905 120.959 20.2014 121.072 20.0841C121.186 19.9668 121.272 19.8243 121.325 19.6675C121.377 19.5106 121.394 19.3436 121.375 19.1789V15.7515L122.501 14.2006L126.007 19.3727C126.21 19.6843 126.486 19.9384 126.808 20.1118C127.131 20.2852 127.49 20.3723 127.854 20.3653H131.015C131.129 20.3788 131.244 20.356 131.345 20.3002C131.446 20.2443 131.528 20.1579 131.58 20.0525C131.632 19.9472 131.652 19.8279 131.637 19.7106ZM44.47 13.3943C44.47 12.6189 45.0556 12.5104 45.7539 12.6189L47.736 12.9523C48.4343 13.0609 48.8322 13.309 48.7496 14.3636C48.4267 17.9849 46.7675 20.5671 41.7596 20.5671C36.3238 20.5671 34.2516 17.3568 34.2516 10.4865C34.2516 3.79451 36.3389 0.149987 41.7596 0.149987C47.3831 0.149987 48.5844 3.60841 48.7721 6.45424C48.8247 7.42353 48.4267 7.75696 47.7285 7.86552L45.7764 8.22222C44.8379 8.38506 44.4925 8.2765 44.4925 7.78023C44.4925 6.03551 43.6066 4.43812 41.7596 4.43812C39.5072 4.43812 38.9516 6.67911 38.9516 10.4942C38.9516 14.3094 39.5373 16.3255 41.7596 16.3255C43.5841 16.2945 44.44 14.9685 44.47 13.3943ZM65.6793 19.7106C65.6641 19.5933 65.6147 19.4835 65.5375 19.396L59.2984 10.432L65.9505 1.31295C66.2433 0.925238 66.1607 0.343665 65.4925 0.343665H62.3316C61.9674 0.333012 61.6066 0.41859 61.2834 0.592289C60.9601 0.765987 60.6852 1.02205 60.4846 1.33622L55.4543 8.60976V1.56109C55.4722 1.39672 55.454 1.23029 55.4011 1.07416C55.3482 0.918032 55.262 0.776219 55.1487 0.659255C55.0355 0.542292 54.8982 0.453183 54.747 0.398547C54.5958 0.343911 54.4347 0.325152 54.2755 0.343665H51.9631C51.8027 0.318741 51.6389 0.333038 51.4849 0.385405C51.3309 0.437772 51.1909 0.526748 51.0762 0.645173C50.9616 0.763598 50.8754 0.908166 50.8247 1.06725C50.774 1.22633 50.7602 1.39548 50.7843 1.56109V19.1401C50.7649 19.3048 50.782 19.4719 50.8344 19.6287C50.8868 19.7855 50.973 19.928 51.0866 20.0453C51.2002 20.1626 51.3381 20.2517 51.49 20.3058C51.6418 20.3599 51.8036 20.3776 51.9631 20.3575H54.2755C54.4303 20.3741 54.5868 20.3551 54.7337 20.3021C54.8806 20.249 55.0144 20.1632 55.1255 20.0506C55.2367 19.9381 55.3224 19.8016 55.3766 19.6509C55.4308 19.5002 55.4522 19.3391 55.4393 19.1789V15.7515L56.5655 14.2006L60.0717 19.3727C60.2748 19.6843 60.5503 19.9384 60.8729 20.1118C61.1955 20.2852 61.5551 20.3723 61.9187 20.3653H65.057C65.1709 20.3788 65.286 20.356 65.387 20.3002C65.488 20.2443 65.5701 20.1579 65.6224 20.0525C65.6746 19.9472 65.6944 19.8279 65.6793 19.7106ZM110.398 13.3943C110.398 12.6189 110.984 12.5104 111.682 12.6189L113.664 12.9523C114.362 13.0609 114.76 13.309 114.677 14.3636C114.355 17.9849 112.695 20.5671 107.687 20.5671C102.252 20.5671 100.179 17.3568 100.179 10.4865C100.179 3.79451 102.267 0.149987 107.687 0.149987C113.311 0.149987 114.512 3.60841 114.7 6.45424C114.753 7.42353 114.355 7.75696 113.656 7.86552L111.704 8.22222C110.766 8.38506 110.42 8.2765 110.42 7.78023C110.42 6.03551 109.534 4.43812 107.687 4.43812C105.435 4.43812 104.879 6.67911 104.879 10.4942C104.879 14.3094 105.465 16.3255 107.687 16.3255C109.519 16.2945 110.375 14.9685 110.398 13.3943ZM32.6677 16.3565C31.9695 16.3565 31.6767 16.054 31.6767 15.3329L31.6617 6.84191C31.6617 3.11209 30.0024 0.126684 24.4314 0.126684C19.0782 0.126684 17.5241 3.39125 17.5241 5.63224C17.5016 6.07424 17.5766 6.24483 18.4626 6.40767L20.5273 6.76437C21.2781 6.93497 21.6235 6.82641 21.6235 6.35339C21.646 5.57796 22.2391 4.41482 24.3263 4.41482C26.2559 4.41482 27.0067 5.57796 27.0067 7.51654V9.45512H26.9541C26.4807 8.99384 25.9205 8.63808 25.3082 8.40996C24.696 8.18185 24.0449 8.08626 23.3953 8.12913C19.2209 8.12913 16.9685 11.068 16.9685 14.3326C16.9685 17.5971 19.0407 20.6368 22.9749 20.6368C26.4811 20.6368 27.6073 18.4269 27.6073 18.4269H27.765V18.4811C27.765 18.9541 28.5909 20.5825 30.8958 20.5825C31.3712 20.5954 31.8466 20.559 32.3149 20.474C32.477 20.4706 32.6366 20.4313 32.7828 20.3587C32.929 20.2862 33.0584 20.1821 33.1623 20.0534C33.2662 19.9248 33.3422 19.7746 33.3851 19.6131C33.428 19.4515 33.4368 19.2824 33.411 19.117V16.6046C33.411 16.3022 33.2534 16.3022 33.0657 16.3022C32.937 16.3435 32.8024 16.3618 32.6677 16.3565ZM27.3896 14.3636C27.3896 15.7439 26.4736 17.0466 24.469 17.0466C24.1133 17.0746 23.7558 17.0265 23.4189 16.9051C23.082 16.7838 22.7731 16.5919 22.5114 16.3414C22.2497 16.091 22.0409 15.7874 21.8981 15.4497C21.7554 15.1121 21.6816 14.7476 21.6816 14.3791C21.6816 14.0106 21.7554 13.6461 21.8981 13.3085C22.0409 12.9708 22.2497 12.6672 22.5114 12.4168C22.7731 12.1663 23.082 11.9744 23.4189 11.8531C23.7558 11.7317 24.1133 11.6836 24.469 11.7116C26.4962 11.7116 27.3896 12.9833 27.3896 14.3636ZM0.968751 13.4098C1.12642 17.2249 2.32019 20.5825 8.3266 20.5825C13.4921 20.5825 15.2865 17.4343 15.2865 13.2857V1.59221C15.303 1.42509 15.2832 1.2563 15.2286 1.09806C15.174 0.939817 15.0861 0.7961 14.9711 0.677324C14.8561 0.558548 14.7169 0.467691 14.5637 0.411339C14.4105 0.354988 14.2471 0.334554 14.0852 0.351521H7.32803C7.17073 0.340257 7.0129 0.363701 6.86504 0.420294C6.71719 0.476887 6.58268 0.565334 6.47048 0.679755C6.35827 0.794177 6.27093 0.931954 6.21425 1.08393C6.15758 1.2359 6.13287 1.39859 6.14177 1.56119V3.3757C6.13298 3.5376 6.1575 3.69959 6.21374 3.85099C6.26997 4.00239 6.35662 4.13977 6.468 4.25406C6.57937 4.36836 6.71293 4.45698 6.85988 4.51408C7.00683 4.57119 7.16383 4.59549 7.32053 4.58537H10.6316V13.1694C10.6316 15.2243 9.71558 16.2711 7.84609 16.2711C5.97659 16.2711 5.24832 14.7203 5.24832 12.7352C5.24909 12.625 5.22712 12.5159 5.18389 12.4152C5.14066 12.3145 5.07714 12.2245 4.99758 12.1511C4.91802 12.0778 4.82423 12.0227 4.72247 11.9897C4.62071 11.9567 4.51331 11.9465 4.40742 11.9597L1.71955 12.4715C1.50817 12.5131 1.31747 12.6296 1.18039 12.8009C1.04331 12.9722 0.968455 13.1875 0.968751 13.4098ZM155.491 16.2716C153.621 16.2716 152.705 15.2248 152.705 13.1699V7.89698H156.092C156.251 7.91549 156.412 7.89673 156.563 7.84209C156.714 7.78746 156.852 7.69835 156.965 7.58138C157.078 7.46442 157.164 7.32261 157.217 7.16648C157.27 7.01035 157.288 6.84392 157.27 6.67955V4.96585C157.288 4.80147 157.27 4.63504 157.217 4.47892C157.164 4.32279 157.078 4.18097 156.965 4.06401C156.852 3.94705 156.714 3.85794 156.563 3.8033C156.412 3.74867 156.251 3.72991 156.092 3.74842H152.668V1.56171C152.678 1.39917 152.654 1.23633 152.598 1.08399C152.543 0.931649 152.456 0.793305 152.345 0.678151C152.233 0.562997 152.099 0.473669 151.952 0.416104C151.804 0.358539 151.647 0.334055 151.489 0.34428H149.162C149.004 0.327792 148.845 0.348221 148.697 0.404043C148.548 0.459866 148.413 0.549641 148.303 0.666674C148.192 0.783707 148.109 0.924978 148.059 1.07995C148.009 1.23493 147.993 1.3996 148.013 1.56171V13.2242C148.013 17.3727 149.807 20.521 154.973 20.521C160.777 20.521 161.843 17.1634 162 13.3483C162.001 13.126 161.926 12.9106 161.789 12.7393C161.652 12.568 161.461 12.4515 161.25 12.41L158.584 11.9602C158.478 11.947 158.371 11.9572 158.269 11.9902C158.167 12.0232 158.074 12.0783 157.994 12.1516C157.914 12.225 157.851 12.315 157.808 12.4157C157.765 12.5164 157.743 12.6255 157.743 12.7357C157.743 14.7208 157.18 16.2716 155.491 16.2716Z" fill="#1E88E5"/>
<path d="M162.752 18.88C162.752 19.584 163.344 20.176 164.048 20.176C164.752 20.176 165.344 19.584 165.344 18.88C165.344 18.176 164.752 17.584 164.048 17.584C163.344 17.584 162.752 18.176 162.752 18.88ZM166.223 16.128C166.223 18.512 167.935 20.192 170.319 20.192C171.903 20.192 172.863 19.504 173.375 18.784L172.047 17.552C171.679 18.064 171.119 18.384 170.415 18.384C169.183 18.384 168.319 17.472 168.319 16.128C168.319 14.784 169.183 13.888 170.415 13.888C171.119 13.888 171.679 14.192 172.047 14.72L173.375 13.488C172.863 12.768 171.903 12.08 170.319 12.08C167.935 12.08 166.223 13.76 166.223 16.128ZM177.968 20.192C180.528 20.192 182.064 18.336 182.064 16.128C182.064 13.936 180.528 12.08 177.968 12.08C175.424 12.08 173.888 13.936 173.888 16.128C173.888 18.336 175.424 20.192 177.968 20.192ZM177.968 18.384C176.704 18.384 176 17.344 176 16.128C176 14.928 176.704 13.888 177.968 13.888C179.232 13.888 179.952 14.928 179.952 16.128C179.952 17.344 179.232 18.384 177.968 18.384ZM194.883 20V14.416C194.883 12.832 194.035 12.08 192.611 12.08C191.427 12.08 190.403 12.784 189.955 13.488C189.667 12.608 188.947 12.08 187.811 12.08C186.627 12.08 185.603 12.816 185.283 13.28V12.272H183.251V20H185.283V14.8C185.587 14.368 186.179 13.888 186.883 13.888C187.715 13.888 188.035 14.4 188.035 15.12V20H190.083V14.784C190.371 14.368 190.963 13.888 191.683 13.888C192.515 13.888 192.835 14.4 192.835 15.12V20H194.883Z" fill="#1E88E5"/>
</svg>
