<?xml version="1.0" encoding="UTF-8"?><svg id="Layer_2" xmlns="http://www.w3.org/2000/svg" viewBox="0 0 510.24 56.29"><defs><style>.cls-1{fill:#ff1212;}.cls-1,.cls-2{stroke-width:0px;}.cls-2{fill:#3d3d3d;}</style></defs><g id="Layer_3"><path class="cls-1" d="m7.93,56.29H0V24.19c0-5.26,4.28-9.55,9.55-9.55h18.88c6.8,0,12.42,5.47,12.53,12.18.06,3.35-1.21,6.51-3.55,8.9-2.35,2.39-5.49,3.7-8.84,3.7h-4.16c-2.5,0-4.56,1.97-4.6,4.39-.02,1.21.43,2.35,1.28,3.21.85.86,1.98,1.33,3.18,1.33h16.69v7.93h-16.69c-3.35,0-6.49-1.32-8.84-3.7-2.35-2.39-3.61-5.55-3.55-8.9.11-6.72,5.73-12.18,12.53-12.18h4.16c1.21,0,2.34-.47,3.18-1.33.85-.86,1.3-2,1.28-3.21-.04-2.42-2.1-4.39-4.6-4.39H9.55c-.89,0-1.62.73-1.62,1.62v32.09Z"/><path class="cls-1" d="m58.21,22.57h28.23v-7.93h-28.23c-3.35,0-6.49,1.32-8.84,3.7-2.35,2.39-3.61,5.55-3.55,8.9.05,3.16,1.33,6.05,3.37,8.22-2.04,2.17-3.32,5.05-3.37,8.22-.06,3.35,1.21,6.51,3.55,8.9,2.35,2.39,5.49,3.7,8.84,3.7h28.23v-7.93h-28.23c-1.21,0-2.34-.47-3.18-1.33-.85-.86-1.3-2-1.28-3.21.04-2.42,2.1-4.39,4.6-4.39h15.7v-7.93h-15.7c-2.5,0-4.56-1.97-4.6-4.39-.02-1.21.43-2.35,1.28-3.21.85-.86,1.98-1.33,3.18-1.33Z"/><path class="cls-1" d="m234.75,56.29h-7.93V24.19c0-5.26,4.28-9.55,9.55-9.55h18.88c6.8,0,12.42,5.47,12.53,12.18.06,3.35-1.21,6.51-3.55,8.9-2.35,2.39-5.49,3.7-8.84,3.7h-4.16c-2.5,0-4.56,1.97-4.6,4.39-.02,1.21.43,2.35,1.28,3.21.85.86,1.98,1.33,3.18,1.33h16.69v7.93h-16.69c-3.35,0-6.49-1.32-8.84-3.7-2.35-2.39-3.61-5.55-3.55-8.9.11-6.72,5.73-12.18,12.53-12.18h4.16c1.21,0,2.34-.47,3.18-1.33.85-.86,1.3-2,1.28-3.21-.04-2.42-2.1-4.39-4.6-4.39h-18.88c-.89,0-1.62.73-1.62,1.62v32.09Z"/><path class="cls-1" d="m285.03,22.57h28.23v-7.93h-28.23c-3.35,0-6.49,1.32-8.84,3.7-2.35,2.39-3.61,5.55-3.55,8.9.05,3.16,1.33,6.05,3.37,8.22-2.04,2.17-3.32,5.05-3.37,8.22-.06,3.35,1.21,6.51,3.55,8.9,2.35,2.39,5.49,3.7,8.84,3.7h28.23v-7.93h-28.23c-1.21,0-2.34-.47-3.18-1.33-.85-.86-1.3-2-1.28-3.21.04-2.42,2.1-4.39,4.6-4.39h15.7v-7.93h-15.7c-2.5,0-4.56-1.97-4.6-4.39-.02-1.21.43-2.35,1.28-3.21.85-.86,1.98-1.33,3.18-1.33Z"/><path class="cls-1" d="m115.3,56.29h-13.99c-5.26,0-9.55-4.28-9.55-9.55V14.64h23.82c5.63,0,10.9,2.21,14.85,6.22,3.95,4.01,6.07,9.32,5.97,14.95-.09,5.52-2.36,10.68-6.37,14.54-3.98,3.82-9.2,5.92-14.72,5.92Zm-15.61-33.71v24.17c0,.89.73,1.62,1.62,1.62h13.99c7.14,0,13.05-5.68,13.17-12.67.06-3.49-1.26-6.78-3.7-9.26-2.44-2.48-5.71-3.85-9.19-3.85h-15.89Z"/><path class="cls-1" d="m187.14,56.29c-.07,0-.14,0-.21,0-6.72-.11-12.18-5.73-12.18-12.53v-12.24c0-1.21-.47-2.34-1.33-3.18-.86-.85-2-1.3-3.21-1.28-2.42.04-4.39,2.1-4.39,4.6v12.1c0,6.8-5.47,12.42-12.18,12.53-3.35.06-6.51-1.21-8.9-3.55-2.39-2.35-3.7-5.49-3.7-8.84V14.64h7.93v29.25c0,1.21.47,2.34,1.33,3.18.86.85,2,1.3,3.21,1.28,2.42-.04,4.39-2.1,4.39-4.6v-12.1c0-6.8,5.46-12.42,12.18-12.53,3.35-.05,6.51,1.21,8.9,3.55,2.39,2.35,3.7,5.49,3.7,8.84v12.24c0,2.5,1.97,4.56,4.39,4.6,1.21.02,2.35-.43,3.21-1.28.86-.85,1.33-1.98,1.33-3.18V14.64h7.93v29.25c0,3.35-1.32,6.49-3.7,8.84-2.34,2.3-5.41,3.56-8.69,3.56Z"/><rect class="cls-1" x="209.21" y="14.64" width="7.93" height="41.64"/><rect class="cls-1" x="209.21" width="7.93" height="7.83"/><path class="cls-2" d="m451.31,56.29h-32.2V24.21c0-5.27,4.29-9.56,9.56-9.56h22.63c3.35,0,6.49,1.32,8.84,3.7,2.35,2.39,3.61,5.55,3.55,8.9-.05,3.16-1.33,6.05-3.37,8.22,2.04,2.17,3.32,5.05,3.37,8.22.06,3.35-1.21,6.51-3.55,8.9-2.35,2.39-5.49,3.7-8.84,3.7Zm-24.27-7.93h24.27c1.21,0,2.34-.47,3.18-1.33.85-.86,1.3-2,1.28-3.21-.04-2.42-2.1-4.39-4.6-4.39h-15.7v-7.93h15.7c2.5,0,4.56-1.97,4.6-4.39.02-1.21-.43-2.35-1.28-3.21-.85-.86-1.98-1.33-3.18-1.33h-22.63c-.9,0-1.63.73-1.63,1.63v24.15Z"/><path class="cls-2" d="m497.7,56.29h-27.07v-7.93h27.07c2.5,0,4.56-1.97,4.6-4.39.02-1.21-.43-2.35-1.28-3.21-.85-.86-1.98-1.33-3.18-1.33h-16.03c-6.8,0-12.42-5.47-12.53-12.18-.06-3.35,1.21-6.51,3.55-8.9,2.35-2.39,5.49-3.7,8.84-3.7h26.58v7.93h-26.58c-1.21,0-2.34.47-3.18,1.33-.85.86-1.3,2-1.28,3.21.04,2.42,2.1,4.39,4.6,4.39h16.03c3.35,0,6.49,1.32,8.84,3.7,2.35,2.39,3.61,5.55,3.55,8.9-.11,6.72-5.73,12.18-12.53,12.18Z"/><path class="cls-2" d="m366.82,56.29h-21.62c-7.42-.12-13.45-6.33-13.45-13.84V14.64h7.93v27.8c0,3.2,2.52,5.85,5.63,5.91h21.51v7.93Z"/><rect class="cls-2" x="319.53" y="48.36" width="8.64" height="7.93"/><path class="cls-2" d="m411.95,48.36v-21.46h0s0-.04,0-.07c-.11-6.72-5.73-12.18-12.53-12.18h-26.64v7.93h26.64c2.49,0,4.55,1.96,4.6,4.37v.03c.02,1.2-.44,2.33-1.28,3.19-.85.86-1.98,1.33-3.18,1.33h-16.03c-6.8,0-12.42,5.47-12.53,12.18-.06,3.35,1.21,6.51,3.55,8.9,2.35,2.39,5.49,3.7,8.84,3.7h28.56v-7.93h0Zm-31.74-1.33c-.85-.86-1.3-2-1.28-3.21.04-2.42,2.1-4.39,4.6-4.39h16.03c1.55,0,3.06-.29,4.46-.83v9.75h-20.63c-1.21,0-2.34-.47-3.18-1.33Z"/></g></svg>