<svg width="592" height="90" viewBox="0 0 592 90" fill="none" xmlns="http://www.w3.org/2000/svg">
<path d="M101.968 20.0695H120.661V28.072H103.085V69H93.501V28.4453C93.501 23.6058 95.2691 20.073 101.968 20.073V20.0695ZM120.731 44.4467C120.731 28.5369 129.664 19.1432 143.897 19.1432C150.596 19.1432 155.992 21.098 159.994 25.0957C163.995 29.0969 166.041 34.493 166.041 41.3754C166.041 42.7702 165.95 44.5383 165.668 46.6798H130.594V49.3778C130.594 57.0985 135.99 62.3079 144.084 62.3079C150.505 62.3079 155.249 59.0533 156.736 54.1223H166.225C164.27 63.7062 155.524 69.937 143.989 69.937C129.477 69.937 120.731 60.0748 120.731 44.4467ZM130.594 38.6774V39.7939H156.366V38.2124C156.366 31.4216 151.34 26.7688 143.805 26.7688C136.271 26.7688 130.594 31.6083 130.594 38.6774ZM192.095 69.937C179.443 69.937 172.001 60.6348 172.001 44.9117C172.001 29.1885 179.443 19.7913 192.095 19.7913C200.468 19.7913 206.237 22.9542 209.308 29.2801H209.96V0.535325H219.636V69H211.077L209.96 60.3566H209.308C206.237 66.4042 199.911 69.9405 192.095 69.9405V69.937ZM195.167 62.0296C204.099 62.0296 209.96 56.2602 209.96 47.6097V42.1221C209.96 33.4715 204.099 27.7021 195.167 27.7021C186.981 27.7021 181.863 32.4466 181.863 40.2624V49.4729C181.863 57.1936 186.699 62.0331 195.167 62.0331V62.0296ZM283.046 44.8166L289.189 20.0695H299.143L285.84 69H271.705L266.03 45.0032L263.146 32.0732H260.825L258.127 45.0032L252.639 69H238.599L225.018 20.0695H235.158L241.297 44.6299L244.46 59.4232H246.965L255.71 20.0695H268.729L277.661 59.3316H280.074L283.05 44.8166H283.046ZM314.197 11.5352H304.708V0H314.197V11.5352ZM314.197 69H304.708V20.0695H314.197V69ZM334.915 20.0695H353.607V28.072H336.028V69H326.447V28.4453C326.447 23.6058 328.215 20.073 334.915 20.073V20.0695ZM353.678 44.4467C353.678 28.5369 362.61 19.1432 376.843 19.1432C383.543 19.1432 388.939 21.098 392.94 25.0957C396.941 29.0969 398.988 34.493 398.988 41.3754C398.988 42.7702 398.896 44.5383 398.614 46.6798H363.54V49.3778C363.54 57.0985 368.936 62.3079 377.03 62.3079C383.451 62.3079 388.196 59.0533 389.682 54.1223H399.171C397.216 63.7062 388.47 69.937 376.935 69.937C362.42 69.937 353.678 60.0748 353.678 44.4467ZM363.54 38.6774V39.7939H389.309V38.2124C389.309 31.4216 384.282 26.7688 376.748 26.7688C369.214 26.7688 363.536 31.6083 363.536 38.6774H363.54ZM435.622 69H426.134V0.535325H435.622V69ZM443.967 54.957C443.967 45.3731 450.666 39.7939 461.736 39.7939H475.973V36.2576C475.973 29.9317 472.624 26.7688 465.924 26.7688C459.225 26.7688 455.689 29.9317 455.41 35.1411H445.921C446.573 25.0006 454.202 19.1396 466.389 19.1396C472.715 19.1396 477.833 21.0945 480.439 23.6974C484.627 27.6986 485.557 33.0947 485.557 36.4443V62.0296H492.443V69H483.606C478.766 69 476.906 67.1474 476.628 63.4244L476.537 61.0998H475.885C473.744 66.4042 467.418 69.937 459.605 69.937C449.93 69.937 443.974 63.9844 443.974 54.957H443.967ZM453.734 52.9106V55.517C453.734 59.9832 456.992 62.3079 462.293 62.3079C470.757 62.3079 475.97 56.9118 475.97 48.7262V46.4016H462.944C457.083 46.4016 453.734 48.9129 453.734 52.9141V52.9106ZM507.885 69H499.23V0.535325H508.814V29.3752H509.466C512.073 23.1409 518.49 19.1432 526.211 19.1432C539.609 19.1432 546.77 28.7271 546.77 44.7285C546.77 60.7299 539.328 69.9405 525.929 69.9405C518.765 69.9405 512.347 66.4042 509.463 60.3566H508.811L507.881 69H507.885ZM508.814 41.8403V47.6097C508.814 51.7976 510.209 55.2388 512.907 57.9368C515.697 60.6348 519.233 62.0296 523.608 62.0296C532.075 62.0296 536.911 57.1901 536.911 49.4694V39.9806C536.911 32.0732 531.793 27.1421 523.608 27.1421C514.957 27.1421 508.814 33.1897 508.814 41.8403ZM551.314 54.0272H560.894C560.894 59.3316 565.082 62.6777 571.778 62.6777C578.104 62.6777 581.827 59.8881 581.827 55.3269C581.827 51.9772 579.78 49.9308 575.592 49.1876L565.639 47.3279C556.706 45.7464 552.24 41.2803 552.24 34.1161C552.24 24.7188 559.682 19.1361 571.218 19.1361C582.753 19.1361 590.291 25.1838 590.382 34.2077H580.893C580.707 28.9983 577.452 26.3919 571.218 26.3919C564.983 26.3919 561.916 28.9983 561.916 33.1827C561.916 36.6239 564.427 38.7654 569.358 39.5086L578.66 41.1816C587.406 42.7631 591.781 47.2293 591.781 54.6717C591.781 64.069 583.965 69.9299 571.778 69.9299C559.591 69.9299 551.31 63.604 551.31 54.0201L551.314 54.0272Z" fill="#0D0D0D"/>
<path d="M58.4791 35H49.521C47.5764 35 46 36.5838 46 38.5376L46 65.4624C46 67.4162 47.5763 69 49.5209 69H58.479C60.4236 69 62 67.4162 62 65.4624L62.0001 38.5376C62.0001 36.5838 60.4237 35 58.4791 35Z" fill="#EA3332"/>
<path d="M58.4267 14H20.21C18.2357 14 16.6334 15.6022 16.6334 17.5763V24C16.6334 25.0514 16.2149 26.0635 15.4709 26.8074C14.727 27.5512 13.7184 27.9696 12.6633 27.9696H3.57667C1.60235 27.9696 0 29.5718 0 31.5459V72.4238C0 74.3978 1.60235 76 3.57667 76H12.4233C14.3977 76 16 74.3978 16 72.4238V37.9178C16 35.2821 17.048 32.7573 18.9078 30.8941C20.7713 29.0308 23.2964 27.9866 25.9288 27.9866H58.4231C60.3974 27.9866 61.9998 26.7009 61.9998 24.7268V17.5798C61.9998 15.6057 60.3974 14.0036 58.4231 14.0036L58.4267 14Z" fill="#EA3332"/>
<path d="M58.4273 75.9992L48.9673 75.9993C46.3368 75.9993 43.817 74.9579 41.9575 73.1097L41.929 73.0812C40.0694 71.2295 39.0273 68.7202 39.0273 66.1043V38.5376C39.0273 36.5756 37.4283 34.9833 35.4581 34.9833H26.569C24.5988 34.9833 22.9999 36.5756 22.9999 38.5376V72.4486C22.9999 74.4105 24.5988 76.0028 26.569 76.0028H35.399C36.4198 76.0028 37.4013 76.408 38.1258 77.1259C38.8468 77.8439 39.2536 78.8213 39.2536 79.8378V86.4463C39.2536 88.4082 40.8526 90.0005 42.8228 90.0005H58.4309C60.401 90.0005 62 88.4082 62 86.4463V79.557C62 77.5951 60.401 76.0028 58.4309 76.0028L58.4273 75.9992Z" fill="#EA3332"/>
</svg>
