<svg width="1283" height="169" viewBox="0 0 1283 169" fill="none" xmlns="http://www.w3.org/2000/svg">
<g clip-path="url(#clip0_203_57)">
<mask id="mask0_203_57" style="mask-type:luminance" maskUnits="userSpaceOnUse" x="0" y="0" width="1283" height="169">
<path d="M-7.96318e-05 0.000244141H1282.5V168.75H-7.96318e-05V0.000244141Z" fill="white"/>
</mask>
<g mask="url(#mask0_203_57)">
<path d="M0.995934 128.992L30.8984 111.763V97.3599L0.995934 114.117V128.992ZM127.288 56.3031L157.182 38.9893L146.247 32.6949L115.872 49.6881L127.288 56.3031ZM30.8984 63.8884L79.0513 36.1121C81.0464 34.9533 83.3126 34.3429 85.6198 34.3429C87.9271 34.3429 90.1933 34.9533 92.1884 36.1121L110.92 46.8953L141.295 29.9021L92.2728 1.57744C90.2574 0.51024 88.0057 -0.0323741 85.7253 -0.000371111C83.3628 -0.000371111 81.0003 0.548066 79.1947 1.57744L7.68687 42.879C5.56062 44.1446 3.59468 46.5071 2.41343 49.0215C1.62875 50.7512 1.14781 52.5653 1.14781 54.2106V108.506L31.0503 91.7406V63.8968L30.8984 63.8884ZM169.535 50.2449C169.222 49.3685 168.826 48.5238 168.354 47.7221L140.341 63.8546V127.035L92.1884 99.2584C90.1772 98.1969 87.9317 97.6572 85.6578 97.689C83.2953 97.689 80.9328 98.2374 79.1272 99.2584L30.9659 127.035L1.07187 144.264L30.9744 161.578L79.1272 133.802C81.1223 132.643 83.3885 132.032 85.6958 132.032C88.003 132.032 90.2692 132.643 92.2644 133.802L140.417 161.578L170.32 144.348V54.1684C170.32 52.9028 170.083 51.5781 169.535 50.2449Z" fill="black"/>
<path d="M30.8984 97.36V91.69L0.995855 108.447V114.117L30.8984 97.36ZM115.872 49.6965L146.247 32.7034L141.21 29.7925L110.92 46.794L115.872 49.6965Z" fill="#3BBBCC"/>
<path d="M269.704 38.8036C273.079 37.3861 277.172 36.6773 281.973 36.6773C289.533 36.6773 295.27 38.483 299.126 42.1026C302.982 45.7308 304.948 50.5992 304.948 56.8176H336.344C336.344 48.0089 334.15 40.1367 329.661 33.2939C325.173 26.4426 318.878 21.1776 310.694 17.3976C302.509 13.6176 293.144 11.7361 282.529 11.7361C271.898 11.7361 262.617 13.3814 254.357 16.7648C246.172 20.1483 239.726 24.9492 235.077 31.0917C230.432 37.2492 227.969 44.7771 228.074 52.4892C228.074 60.5892 230.2 67.5164 234.453 73.4142C238.705 79.3205 244.443 84.1973 251.53 88.1292C258.685 92.0695 267.182 95.6048 277.011 98.8364C284.647 101.275 290.469 103.637 294.409 105.755C298.341 107.881 301.016 110.168 302.509 112.446C304.011 114.724 304.712 117.72 304.712 121.179C304.712 125.82 302.906 129.6 299.286 132.51C295.667 135.421 290.241 136.839 283.154 136.839C274.109 136.839 267.182 134.949 262.381 131.253C257.504 127.558 255.141 121.5 255.141 113.155H223.594C223.594 123.778 226.429 132.747 232.09 140.07C237.76 147.386 245.151 152.811 254.196 156.355C263.25 159.899 272.928 161.62 283.238 161.62C293.54 161.62 303.379 160.05 311.327 156.819C319.275 153.596 325.485 148.955 329.813 142.813C334.142 136.679 336.344 129.439 336.344 120.943C336.344 109.215 332.336 99.5451 324.388 92.0695C316.44 84.5095 304.248 78.2995 287.879 73.2623C278.201 70.2755 271.038 67.2042 266.473 64.057C261.917 60.9858 259.554 57.1383 259.554 52.6495C259.554 49.6542 260.415 46.9036 262.069 44.4651C263.798 42.0183 266.321 40.1367 269.704 38.7276V38.8036ZM414.635 121.736L387.18 42.5836H351.928V161.156H379.94V129.684L377.974 84.9145L404.637 160.135L405.042 161.156H424.161L451.305 84.9145L449.339 129.76V161.156H477.427V42.5836H442.099L414.635 121.736ZM528.094 42.5836L484.11 161.156H513.928L521.488 138.265H560.115L567.666 161.156H597.645L553.432 42.5836H528.094ZM552.403 114.977H529.031L540.675 79.4048L552.403 114.977ZM688.137 100.018C691.833 94.5923 693.723 87.5133 693.723 79.0083C693.723 71.2205 691.908 64.538 688.289 59.1042C684.669 53.6789 679.48 49.5023 672.789 46.6758C666.183 43.9167 658.234 42.5836 649.189 42.5836H604.023V161.156H632.036V119.458H647.536L668.781 161.156H697.975V158.405L673.81 112.134C679.953 109.071 684.754 104.979 688.213 99.9417L688.129 100.026L688.137 100.018ZM631.952 65.8711H649.105C654.615 65.8711 658.783 67.2126 661.542 69.8873C664.293 72.562 665.634 76.2576 665.634 81.1345C665.634 86.0114 664.293 89.5551 661.542 92.2298C658.783 94.9045 654.623 96.2461 649.105 96.2461H631.952V65.8711ZM699.224 65.8711H733.843V161.156H761.771V65.8711H797.023V42.5836H699.232L699.224 65.8711ZM913.789 83.1933C918.278 76.5783 920.48 68.1576 920.48 57.7711C920.48 48.3295 918.278 40.2211 913.95 33.6989C909.621 27.0839 903.403 22.1311 895.303 18.7476C887.194 15.3642 877.441 13.7105 866.194 13.7105H811.114V159.595H842.585V106.869H865.324L892.156 159.586H925.83V158.093L894.594 98.7689C902.93 94.9889 909.385 89.8083 913.789 83.1933ZM883.263 75.8695C879.407 79.6495 873.745 81.4552 866.269 81.4552H842.661V39.2001H866.269C873.821 39.2001 879.491 41.0901 883.339 44.7942C887.194 48.5658 889.084 53.7633 889.084 60.4458C889.084 67.1367 887.119 72.1739 883.263 75.8695ZM966.752 111.51H1011.83V89.0067H966.752V65.8711H1019.71V42.5836H938.739V161.156H1019.78V137.953H966.752V111.51ZM1099.8 113.003L1057.78 43.2923L1057.31 42.5836H1030.01V161.156H1058.02V90.7364L1100.04 160.371L1100.51 161.156H1127.73V42.5836H1099.8V113.003ZM1137.88 42.5836V65.8711H1172.5V161.156H1200.44V65.8711H1235.69V42.5836H1137.88ZM1273.06 23.4895C1275.97 25.2192 1278.25 27.6661 1279.98 30.7289C1281.71 33.8001 1282.5 37.1836 1282.5 40.8792C1282.5 44.5748 1281.63 47.9667 1279.98 51.0295C1278.35 54.0142 1275.97 56.513 1273.06 58.2689C1270.19 60.0182 1266.89 60.9436 1263.53 60.9436C1260.07 60.9436 1256.93 60.083 1254.01 58.2689C1251.1 56.5132 1248.71 54.0146 1247.09 51.0295C1245.38 47.9246 1244.51 44.4244 1244.57 40.8792C1244.57 37.1836 1245.43 33.7917 1247.09 30.7289C1248.82 27.6661 1251.1 25.3036 1254.01 23.4895C1256.89 21.7677 1260.18 20.8714 1263.53 20.8992C1267 20.8992 1270.15 21.7598 1273.06 23.4895ZM1271.4 55.358C1273.83 53.8912 1275.81 51.7985 1277.15 49.2998C1278.56 46.7855 1279.27 43.9505 1279.27 40.8792C1279.27 37.8164 1278.56 34.973 1277.15 32.4586C1275.81 29.9847 1273.82 27.9202 1271.4 26.4848C1269.04 25.0207 1266.31 24.2571 1263.53 24.2826C1260.71 24.2826 1258.03 24.983 1255.58 26.4764C1253.18 27.9384 1251.2 30.0037 1249.85 32.467C1248.42 35.0388 1247.69 37.9381 1247.72 40.8792C1247.69 43.7624 1248.4 46.6057 1249.77 49.1395C1251.15 51.6733 1253.15 53.8137 1255.58 55.358C1258.03 56.8514 1260.62 57.5601 1263.46 57.5601C1266.29 57.5601 1268.97 56.8514 1271.32 55.358H1271.4ZM1271.79 48.0426C1271.79 49.612 1271.95 50.7173 1272.27 51.4176V51.8142H1268.1C1267.86 51.1898 1267.78 49.9326 1267.78 47.9583V46.5492C1267.78 45.2836 1267.47 44.347 1266.92 43.7142C1266.37 43.0814 1265.35 42.8451 1264 42.8451H1259.76V51.8986H1255.74V29.1595H1263.3C1265.97 29.1595 1268.1 29.7839 1269.67 30.9651C1271.24 32.1464 1272.03 33.9605 1272.03 36.1626C1272.03 38.1286 1271.09 39.7064 1269.12 40.7189C1271.01 41.7483 1271.95 43.7142 1271.95 46.4648V47.9583L1271.79 48.0426ZM1266.53 38.5167C1266.93 38.2866 1267.26 37.9552 1267.5 37.5555C1267.73 37.1558 1267.86 36.7017 1267.86 36.2386C1267.9 35.5266 1267.74 34.8175 1267.39 34.1967C1267.03 33.6672 1266.51 33.2767 1265.89 33.0914C1265 32.8427 1264.07 32.7374 1263.14 32.7792H1259.68V39.3858H1263.3C1264.56 39.3858 1265.66 39.1495 1266.53 38.6011V38.5167Z" fill="black"/>
</g>
</g>
<defs>
<clipPath id="clip0_203_57">
<rect width="1282.5" height="168.75" fill="white"/>
</clipPath>
</defs>
</svg>
