<svg xmlns="http://www.w3.org/2000/svg" viewBox="0 0 72.272 9.1392"><defs><style>.a{fill:#231f20;}</style></defs><path class="a" d="M127.6953,182.6045V191H126.1l-4.1855-5.0972V191h-1.919v-8.3955h1.6069l4.1739,5.0972v-5.0972Z" transform="translate(-119.9956 -182.0049)"/><path class="a" d="M135.8438,188.3013h-4.8814a1.721,1.721,0,0,0,1.8472,1.2954,2.1865,2.1865,0,0,0,1.6191-.6236l.9956,1.08a3.38,3.38,0,0,1-2.6626,1.043c-2.2309,0-3.6821-1.4028-3.6821-3.3218a3.2848,3.2848,0,0,1,3.4419-3.3222,3.1942,3.1942,0,0,1,3.3584,3.3462C135.88,187.9419,135.856,188.1455,135.8438,188.3013Zm-4.9053-1.0913h3.1782a1.6116,1.6116,0,0,0-3.1782,0Z" transform="translate(-119.9956 -182.0049)"/><path class="a" d="M141.08,184.4517v1.727c-.1558-.0122-.2759-.0239-.4194-.0239a1.5852,1.5852,0,0,0-1.7154,1.7988V191h-1.8706v-6.4526h1.7866v.8515A2.6051,2.6051,0,0,1,141.08,184.4517Z" transform="translate(-119.9956 -182.0049)"/><path class="a" d="M148.9277,184.5474,146.2051,191h-1.9307l-2.7109-6.4526h1.9311l1.7871,4.39,1.8472-4.39Z" transform="translate(-119.9956 -182.0049)"/><path class="a" d="M155.7446,188.3013h-4.8813a1.721,1.721,0,0,0,1.8471,1.2954,2.1869,2.1869,0,0,0,1.6192-.6236l.9956,1.08a3.38,3.38,0,0,1-2.6626,1.043c-2.231,0-3.6821-1.4028-3.6821-3.3218a3.2848,3.2848,0,0,1,3.4419-3.3222,3.1942,3.1942,0,0,1,3.3584,3.3462C155.7808,187.9419,155.7568,188.1455,155.7446,188.3013Zm-4.9052-1.0913h3.1782a1.6116,1.6116,0,0,0-3.1782,0Z" transform="translate(-119.9956 -182.0049)"/><path class="a" d="M156.418,190.4l.624-1.3433a4.415,4.415,0,0,0,2.2427.6236c.8632,0,1.187-.2281,1.187-.5874,0-1.0557-3.8975.0239-3.8975-2.5547,0-1.2237,1.103-2.0869,2.9863-2.0869a5.3062,5.3062,0,0,1,2.4825.5634l-.6236,1.3316a3.7054,3.7054,0,0,0-1.8589-.48c-.84,0-1.2.2642-1.2.6,0,1.1035,3.898.0361,3.898,2.5786,0,1.2-1.1152,2.0508-3.0464,2.0508A5.5421,5.5421,0,0,1,156.418,190.4Z" transform="translate(-119.9956 -182.0049)"/><path class="a" d="M163.043,186.8022a4.6232,4.6232,0,0,1,8.0117-2.8544l-1.2476,1.1513a2.7009,2.7009,0,0,0-2.1108-.9834,2.6866,2.6866,0,0,0,0,5.3731,2.6748,2.6748,0,0,0,2.1108-.9956l1.2476,1.1513a4.6148,4.6148,0,0,1-8.0117-2.8423Z" transform="translate(-119.9956 -182.0049)"/><path class="a" d="M171.6206,187.7739a3.5514,3.5514,0,1,1,3.55,3.3218A3.3218,3.3218,0,0,1,171.6206,187.7739Zm5.1934,0a1.6545,1.6545,0,1,0-1.6431,1.7866A1.6285,1.6285,0,0,0,176.814,187.7739Z" transform="translate(-119.9956 -182.0049)"/><path class="a" d="M186.499,187.3062V191h-1.8711v-3.4062c0-1.0435-.48-1.523-1.3071-1.523-.8994,0-1.5474.5518-1.5474,1.7388V191h-1.8711v-6.4526H181.69v.7558a2.8249,2.8249,0,0,1,2.1347-.8515A2.5293,2.5293,0,0,1,186.499,187.3062Z" transform="translate(-119.9956 -182.0049)"/><path class="a" d="M190.1689,184.6914h1.6548v1.44h-1.6069V191h-1.8711v-4.8691h-.9951v-1.44h.9951v-.2876a2.2522,2.2522,0,0,1,2.4946-2.3989,2.6532,2.6532,0,0,1,1.4273.3476l-.4917,1.3555a1.3088,1.3088,0,0,0-.7554-.228c-.5517,0-.8516.3-.8516.9355Z" transform="translate(-119.9956 -182.0049)"/></svg>